<?xml version="1.0" encoding="utf-8"?>
<!-- Generator: Adobe Illustrator 23.0.4, SVG Export Plug-In . SVG Version: 6.00 Build 0)  -->
<svg version="1.1" id="Layer_1" xmlns="http://www.w3.org/2000/svg" xmlns:xlink="http://www.w3.org/1999/xlink" x="0px" y="0px"
	 viewBox="0 0 336.86 337.03" style="enable-background:new 0 0 336.86 337.03;" xml:space="preserve">
<style type="text/css">
	.st0{fill:#FFFFFF;}
</style>
<g>
	<g>
		<g>
			<path class="st0" d="M296.71,59.87c5.09,9.22,3.37,21.06-4.74,28.39l-11.62,10.49c-0.49,0.44-1.28,0.36-1.72-0.13l-29.3-32.45
				c-0.44-0.49-0.45-1.29,0.04-1.73l11.62-10.49c8.12-7.34,20.1-7.84,28.71-1.87c-62.65-65.36-166.33-69.46-233.98-8.37
				c-68.91,62.23-74.32,168.54-12.09,237.45c0.02,0.02,0.03,0.03,0.05,0.05c-8.73-9.81-7.94-24.73,1.82-33.54
				c4.95-4.47,9.94-6.13,15.98-6.15c0.79-0.01,1.33,0.58,1.29,1.33l-0.2,5.79c0.01,0.7-0.48,1.14-1.23,1.11
				c-3.7,0.05-7.41,1.45-10.16,3.93c-6.27,5.67-6.19,15.11-0.62,21.29c5.53,6.13,14.93,7.07,21.2,1.41
				c2.94-2.66,4.42-6.04,4.98-9.57c0.08-0.7,0.67-1.13,1.22-1.11l5.87,0.39c0.7-0.01,1.18,0.71,1.15,1.37
				c-0.41,6.25-3.25,11.57-7.62,15.51c-9.73,8.79-24.51,8.18-33.38-1.42c62.28,68.54,168.32,73.82,237.09,11.7
				C348.64,232.23,355.15,128.83,296.71,59.87z M242.61,72.23l3.63,4.02c0.44,0.49,0.45,1.29-0.09,1.77l-14.51,13.1l7.26,8.04
				l12.11-10.93c0.49-0.44,1.33-0.4,1.77,0.09l3.67,4.07c0.49,0.54,0.4,1.33-0.09,1.77l-12.11,10.93l7.75,8.58l14.51-13.1
				c0.54-0.49,1.33-0.4,1.77,0.09l3.63,4.02c0.44,0.49,0.45,1.29-0.09,1.77l-19.95,18.01c-0.54,0.49-1.33,0.4-1.77-0.09l-29.3-32.45
				c-0.44-0.49-0.45-1.29,0.09-1.77l19.95-18.01C241.38,71.65,242.17,71.74,242.61,72.23z M132.63,230.46
				c0.44,0.49,0.45,1.29-0.09,1.77l-4.46,4.03c-0.49,0.44-1.33,0.4-1.77-0.09l-29.79-32.98c-0.44-0.49-0.36-1.28,0.13-1.72
				l1.23-1.11l39.95,3.25l0.05-0.04l-18.28-20.24c-0.44-0.49-0.45-1.29,0.09-1.77l4.51-4.07c0.49-0.44,1.33-0.4,1.77,0.09
				l29.79,32.98c0.44,0.49,0.36,1.28-0.13,1.72l-1.18,1.06l-40.8-3.99l-0.05,0.04L132.63,230.46z M146.79,188.31
				c-8.85-9.8-8.09-24.82,1.71-33.67c4.95-4.47,9.94-6.13,15.98-6.15c0.79-0.01,1.33,0.58,1.29,1.33l-0.2,5.79
				c0.01,0.7-0.48,1.14-1.22,1.11c-3.7,0.05-7.42,1.45-10.16,3.92c-6.27,5.67-6.19,15.12-0.62,21.29c5.53,6.13,14.93,7.07,21.2,1.41
				c2.94-2.66,4.42-6.04,4.98-9.57c0.08-0.7,0.67-1.14,1.23-1.11l5.87,0.39c0.7-0.01,1.18,0.71,1.15,1.37
				c-0.41,6.25-3.25,11.57-7.62,15.51C170.57,198.78,155.64,198.11,146.79,188.31z M167.82,139.77c-0.44-0.49-0.45-1.29,0.09-1.77
				l19.95-18.01c0.54-0.49,1.33-0.4,1.77,0.09l3.63,4.02c0.44,0.49,0.45,1.29-0.09,1.77l-14.51,13.1l7.26,8.04l12.11-10.93
				c0.49-0.44,1.33-0.4,1.77,0.09l3.67,4.07c0.49,0.54,0.4,1.33-0.09,1.77l-12.11,10.93l7.75,8.58l14.51-13.1
				c0.54-0.49,1.33-0.4,1.77,0.09l3.63,4.02c0.44,0.49,0.45,1.29-0.09,1.77l-19.95,18.01c-0.54,0.49-1.33,0.4-1.77-0.09
				L167.82,139.77z M196.35,114.01c-0.44-0.49-0.45-1.29,0.09-1.77l4.51-4.07c0.49-0.44,1.33-0.4,1.77,0.09l24.83,27.5l12.5-11.29
				c0.54-0.49,1.33-0.4,1.77,0.09l3.63,4.02c0.44,0.49,0.45,1.29-0.09,1.77l-17.94,16.2c-0.54,0.49-1.33,0.4-1.77-0.09
				L196.35,114.01z M57.09,221.91c-23.1-48.06-13.01-107.48,28.57-145.03c41.53-37.51,101.58-41.55,147.03-13.79L57.09,221.91z
				 M91.32,269.46c-0.73,0.66-1.7,0.38-1.98-0.52l-14.55-46.75c-0.12-0.43-0.1-0.89,0.35-1.29l0.49-0.44
				c0.49-0.44,0.91-0.37,1.32-0.21l44.88,19.35c0.87,0.37,1.05,1.36,0.32,2.03l-4.26,3.85c-0.74,0.66-1.34,0.68-2.31,0.3l-7.18-3.12
				l-14.65,13.23l2.38,7.46c0.25,0.67,0.25,1.56-0.54,2.26L91.32,269.46z M251.12,260.08c-41.02,37.04-100.08,41.44-145.32,14.82
				l174.84-157.84C302.5,164.76,292.12,223.05,251.12,260.08z"/>
			<polygon class="st0" points="86.45,233.02 86.3,233.15 91.23,248.27 101.08,239.38 			"/>
			<path class="st0" d="M265.75,60.41l-5.59,5.05l20.23,22.4l5.59-5.05c6.37-5.75,6.69-14.76,0.89-21.18
				C281.11,55.26,272.12,54.66,265.75,60.41z"/>
		</g>
	</g>
</g>
</svg>
